<?xml version="1.0" encoding="utf-8"?>
<!-- Generator: Adobe Illustrator 16.0.0, SVG Export Plug-In . SVG Version: 6.00 Build 0)  -->
<!DOCTYPE svg PUBLIC "-//W3C//DTD SVG 1.1//EN" "http://www.w3.org/Graphics/SVG/1.1/DTD/svg11.dtd">
<svg version="1.1" id="Camada_1" xmlns="http://www.w3.org/2000/svg" xmlns:xlink="http://www.w3.org/1999/xlink" x="0px" y="0px"
	 width="435px" height="154px" viewBox="0 0 435 154" enable-background="new 0 0 435 154" xml:space="preserve">
<path fill-rule="evenodd" clip-rule="evenodd" fill="#15120E" d="M3,118.521h24.419c15.427,0,22.493-8.368,22.493-24.45V44.585
	c0-15.396-7.066-23.765-22.493-23.765H3V118.521z M3,118.521L3,118.521L3,118.521z M26.777,34.951c5.145,0,7.707,1.949,7.707,9.014
	v50.748c0,7.07-2.563,9.678-7.707,9.678H18.42V34.951H26.777z M26.777,34.951L26.777,34.951L26.777,34.951z M73.689,43.32
	c0-7.066,3.236-9.634,7.732-9.634c5.126,0,8.344,2.568,8.344,9.634v52.696c0,7.077-3.218,9.634-8.344,9.634
	c-4.496,0-7.732-2.557-7.732-9.634V43.32z M73.689,43.32L73.689,43.32L73.689,43.32z M58.28,94.713
	c0,15.439,8.35,24.456,23.141,24.456c15.421,0,23.136-9.017,23.136-24.456V43.965c0-15.44-7.714-24.435-23.136-24.435
	c-14.792,0-23.141,8.995-23.141,24.435V94.713z M58.28,94.713L58.28,94.713L58.28,94.713z M137.968,78.028h6.436v17.987
	c0,7.077-3.218,8.998-7.714,8.998c-5.139,0-7.707-1.921-7.707-8.998V43.32c0-7.066,2.568-9.634,7.707-9.634
	c4.496,0,7.714,2.568,7.714,9.634v10.254h14.792v-9.609c0-15.44-7.727-24.435-23.147-24.435c-14.779,0-22.499,8.995-22.499,24.435
	v50.748c0,15.439,7.72,24.456,22.499,24.456c15.421,0,23.147-9.017,23.147-24.456V63.857h-21.227V78.028z M137.968,78.028
	L137.968,78.028L137.968,78.028z M231.816,43.965c0,28.267,29.57,32.124,29.57,52.051c0,7.077-2.569,8.998-7.726,8.998
	c-5.126,0-7.676-1.921-7.676-8.998V88.95h-14.816v5.763c0,15.439,7.714,24.456,23.134,24.456c14.786,0,22.493-9.017,22.493-24.456
	c0-27.629-29.57-31.476-29.57-51.393c0-7.066,2.588-9.634,7.732-9.634c4.496,0,7.065,2.568,7.065,9.634v3.853h14.772v-3.208
	c0-15.44-7.707-24.435-22.493-24.435C239.519,19.53,231.816,28.525,231.816,43.965z M231.816,43.965L231.816,43.965L231.816,43.965z
	 M285.819,118.521h15.408v-97.7h-15.408V118.521z M285.819,118.521L285.819,118.521L285.819,118.521z M294.811,0.233l-9.64,15.445
	h10.264l14.131-15.445H294.811z M294.811,0.233L294.811,0.233L294.811,0.233z M307.664,34.951h16.05v83.569h14.804V34.951h16.058
	v-14.13h-46.911V34.951z M307.664,34.951L307.664,34.951L307.664,34.951z M361.672,118.521h15.409v-97.7h-15.409V118.521z
	 M361.672,118.521L361.672,118.521L361.672,118.521z M402.137,43.32c0-7.066,2.567-9.634,7.706-9.634
	c5.164,0,7.733,2.568,7.733,9.634v52.696c0,7.077-2.569,9.634-7.733,9.634c-5.139,0-7.706-2.557-7.706-9.634V43.32z M402.137,43.32
	L402.137,43.32L402.137,43.32z M386.684,94.713c0,15.439,8.387,24.456,23.159,24.456c15.44,0,23.155-9.017,23.155-24.456V43.965
	c0-15.44-7.715-24.435-23.155-24.435c-14.772,0-23.159,8.995-23.159,24.435V94.713z"/>
<path fill-rule="evenodd" clip-rule="evenodd" fill="#15120E" d="M185.547,61.304h9.634c6.41,0,9.635-3.847,9.635-9.653V31.094
	c0-6.426-3.225-9.659-9.635-9.659h-9.634V61.304z M185.547,61.304L185.547,61.304L185.547,61.304z M195.181,27.237
	c1.933,0,3.205,0.649,3.205,3.857V51.65c0,2.588-1.272,3.879-3.205,3.879h-3.86V27.237H195.181z M195.181,27.237L195.181,27.237
	L195.181,27.237z M191.321,75.459c0-3.227,1.297-3.876,3.205-3.876c1.939,0,3.218,0.649,3.218,3.876v21.199
	c0,3.217-1.278,3.865-3.218,3.865c-1.908,0-3.205-0.648-3.205-3.865V75.459z M191.321,75.459L191.321,75.459L191.321,75.459z
	 M184.905,96.658c0,6.435,3.217,9.64,9.622,9.64c5.787,0,8.999-3.205,8.999-9.64v-20.57c0-6.435-3.212-10.282-8.999-10.282
	c-6.404,0-9.622,3.847-9.622,10.282V96.658z"/>
<rect x="182.304" y="110.788" fill-rule="evenodd" clip-rule="evenodd" fill="#FCC00E" width="25.093" height="7.732"/>
<path fill-rule="evenodd" clip-rule="evenodd" fill="#15120E" d="M17.13,151.284v1.933H3V131.99h14.13v1.31H4.926v8.354h10.289v1.26
	H4.926v8.37H17.13z M17.13,151.284L17.13,151.284L17.13,151.284z M33.206,135.845c-1.285-0.625-1.915-1.26-2.569-1.896
	c-1.291,0-2.575-0.648-3.86-0.648s-2.563,0.648-3.866,1.285c-0.643,0.635-1.272,1.26-1.272,3.204c0,0,0.63,0.673,0.63,1.272
	c0,0.66,0.643,0.66,1.303,1.31c0,0,0.642,0,1.285,0.636c0.636,0,1.92,0.647,2.563,0.647c1.297,0,2.569,0.637,3.218,0.637
	c0.655,0.623,1.927,0.623,2.569,1.285c0.648,0.647,0.648,0.647,1.278,1.284c0,0.662,0.655,1.26,0.655,2.569
	c0,1.285-0.655,1.958-0.655,2.569c-0.63,0.648-1.278,1.285-1.92,1.92c-0.642,0.687-1.272,0.687-1.927,0.687
	c-1.291,0.611-2.575,0.611-3.218,0.611c-3.205,0-6.422-0.611-8.355-3.218l0.648-1.284c0.642,0,1.285,0.673,1.285,1.284
	c0.642,0,1.272,0,1.915,0.648c0.661,0,1.303,0.637,1.945,0.637c0.636,0,1.92,0,2.563,0c1.927,0,3.218,0,3.873-0.637
	c0.63-0.648,1.272-1.933,1.272-3.218c0-0.637,0-1.31,0-1.31c-0.642-0.598-0.642-0.598-1.272-1.26
	c-0.655-0.637-1.303-0.637-1.945-0.637c-1.285-0.647-1.927-0.647-3.212-0.647c-0.642-0.662-1.92-0.662-2.563-1.285
	c-0.661,0-1.303-0.637-1.933-0.637c-0.642-0.647-1.285-1.283-1.285-1.933c-0.642-0.66-0.642-1.26-0.642-1.933
	c0-1.285,0-1.944,0.642-2.569c0-1.271,0.643-1.271,1.285-1.92c0.63-0.648,1.933-1.31,2.575-1.31c0.643,0,1.92,0,2.563,0
	c1.939,0,3.211,0,3.86,0c1.285,0.661,2.569,1.31,3.217,1.958L33.206,135.845z M33.206,135.845L33.206,135.845L33.206,135.845z
	 M38.356,153.217V131.99h8.992c0.642,0,1.279,0,2.563,0c0.642,0.661,1.291,1.31,1.945,1.958c0.63,0.637,0.63,1.271,1.272,1.896
	c0,0.659,0.643,1.944,0.643,2.617c0,0.6-0.643,1.909-0.643,2.545c-0.642,0.647-0.642,1.284-1.272,1.907
	c-0.655,0.662-1.303,1.31-1.945,1.946c-0.637,0-1.921,0.662-2.563,0.662h-7.071v7.694H38.356z M38.356,153.217L38.356,153.217
	L38.356,153.217z M40.278,143.576h7.071c0.642,0,1.279-0.662,1.279-0.662c0.648,0,1.285-0.623,1.285-1.26
	c0.642,0,1.291-0.647,1.291-1.283c0-0.649,0-1.31,0-1.909c0-0.673,0-1.31,0-1.958c-0.648-0.659-0.648-1.284-1.291-1.284
	c0-0.635-0.637-1.271-1.285-1.271c-0.637,0-1.279-0.648-1.279-0.648h-7.071V143.576z M40.278,143.576L40.278,143.576L40.278,143.576
	z M71.119,151.284v1.933H56.983V131.99h13.495v1.31H58.922v8.354h10.277v1.26H58.922v8.37H71.119z M71.119,151.284L71.119,151.284
	L71.119,151.284z M73.046,142.291c0-1.284,0-2.569,0.643-3.829c0.667-1.31,1.297-2.617,1.939-3.242
	c0.636-1.271,1.927-1.92,3.217-2.568c1.278-0.661,2.575-0.661,3.848-0.661c1.927,0,3.854,0,5.157,1.31
	c1.278,0.648,2.575,1.285,2.575,3.204l-1.297,0.648c-0.642-0.648-0.642-1.308-1.278-1.933c-0.661,0-1.303-0.635-1.303-1.271
	c-0.637,0-1.279,0-1.927,0c-0.642-0.648-1.278-0.648-1.927-0.648c-1.272,0-1.92,0.648-3.199,0.648
	c-1.291,0.637-1.939,1.271-2.569,2.556c-0.661,0.648-1.297,1.958-1.297,2.558c-0.643,1.31-0.643,2.593-0.643,3.229
	c0,1.285,0.643,2.569,0.643,3.231c0.636,1.271,1.297,1.907,1.927,3.192c0.648,0.673,1.291,1.284,1.939,1.933
	c1.279,0.637,1.927,0.637,3.199,0.637c0.649,0,1.285,0,1.927,0c0.648,0,1.291-0.637,1.927-0.637c0.642-0.648,1.303-0.648,1.303-1.26
	c0.636-0.673,1.278-1.31,1.278-1.958l1.927,1.285c0,0.673-0.63,1.284-1.291,1.933c-0.637,0.637-1.278,0.637-1.915,1.271
	c-1.303,0.687-1.94,0.687-2.582,1.298c-0.648,0-1.926,0-2.575,0c-1.272,0-2.569,0-3.848-0.611c-1.291-0.687-1.92-1.958-3.217-2.606
	c-0.643-1.284-1.272-2.569-1.939-3.879C73.046,144.86,73.046,143.576,73.046,142.291z M73.046,142.291L73.046,142.291
	L73.046,142.291z M94.916,153.217V131.99h1.927v21.227H94.916z M94.916,153.217L94.916,153.217L94.916,153.217z M108.404,131.99
	h1.939l8.343,21.227h-1.926l-2.582-7.097h-9.622l-2.57,7.097h-1.945L108.404,131.99z M108.404,131.99L108.404,131.99L108.404,131.99
	z M113.548,144.86l-4.502-10.912l-3.86,10.912H113.548z M113.548,144.86L113.548,144.86L113.548,144.86z M121.904,153.217V131.99
	h1.934v19.294h12.21v1.933H121.904z M121.904,153.217L121.904,153.217L121.904,153.217z M139.265,153.217V131.99h1.92v21.227
	H139.265z M139.265,153.217L139.265,153.217L139.265,153.217z M145.052,151.284l14.143-17.984h-14.143v-1.31h16.069v1.31
	l-13.5,17.984h13.5v1.933h-16.069V151.284z M145.052,151.284L145.052,151.284L145.052,151.284z M171.385,131.99h1.946l8.343,21.227
	h-1.933l-2.551-7.097h-9.666l-2.557,7.097h-1.926L171.385,131.99z M171.385,131.99L171.385,131.99L171.385,131.99z M176.542,144.86
	l-4.496-10.912l-3.873,10.912H176.542z M176.542,144.86L176.542,144.86L176.542,144.86z M184.905,153.217V131.99h7.046
	c1.927,0,3.23,0,4.515,0.661c1.278,0.648,1.92,1.297,3.23,1.934c0.617,1.26,1.265,1.919,1.895,3.877
	c0.662,1.26,0.662,2.545,0.662,3.829c0,1.933-0.662,3.231-0.662,4.502c-0.63,1.285-1.278,2.595-1.895,3.206
	c-1.31,1.285-2.582,1.92-3.23,2.606c-1.285,0-2.587,0.611-4.515,0.611H184.905z M184.905,153.217L184.905,153.217L184.905,153.217z
	 M199.696,142.291c0-1.284,0-2.569,0-3.229c-0.648-1.272-1.31-2.558-1.952-3.217c-0.63-0.625-1.278-1.26-2.563-1.896
	c-0.655,0-1.939-0.648-3.23-0.648h-5.138v17.984h5.138c1.291,0,2.575,0,3.867-0.637c0.648-0.648,1.296-1.26,1.926-1.933
	c0.642-1.285,1.304-1.922,1.952-2.595C199.696,144.86,199.696,143.576,199.696,142.291z M199.696,142.291L199.696,142.291
	L199.696,142.291z M214.469,153.217c-1.304,0-2.588-0.611-3.848-0.611c-1.321-0.687-1.939-1.321-3.224-2.606
	c-0.636-1.284-1.304-2.569-1.945-3.879c-0.636-1.26-0.636-2.544-0.636-3.829c0-1.284,0-2.569,0.636-3.829
	c0.642-1.31,1.309-2.617,1.945-3.877c1.285-0.637,1.902-1.285,3.224-1.934c1.26-0.661,2.544-0.661,3.848-0.661
	c1.303,0,2.563,0,4.515,0.661c1.26,0.648,1.907,1.297,2.55,2.568c1.315,0.625,1.933,1.933,2.575,3.242
	c0,1.26,0.643,2.545,0.643,3.829c0,1.933-0.643,3.231-0.643,3.829c-0.643,1.958-1.26,2.595-2.575,3.879
	c-0.643,1.285-1.933,1.92-3.212,2.606C217.032,153.217,215.772,153.217,214.469,153.217z M214.469,153.217L214.469,153.217
	L214.469,153.217z M206.761,142.291c0,1.285,0,2.569,0.636,3.231c0,1.271,0.643,1.907,1.285,3.192
	c0.618,0.673,1.939,1.284,2.575,1.933c1.26,0.637,1.908,0.637,3.212,0.637c1.303,0,2.563,0,3.205-0.637
	c1.31-0.648,1.927-1.26,2.57-1.933c0.647-1.285,1.29-1.922,1.29-3.192c0.617-0.662,0.617-1.946,0.617-3.231
	c0-0.637,0-1.92-0.617-3.229c0-1.272-0.643-1.909-1.29-3.217c-0.643-0.625-1.26-1.26-2.57-1.896c-0.643,0-1.902-0.648-3.205-0.648
	c-1.304,0-2.588,0.648-3.212,0.648c-0.636,0.637-1.958,1.271-2.575,2.556c-0.642,0.648-1.285,1.958-1.285,2.558
	C206.761,140.371,206.761,141.654,206.761,142.291z M206.761,142.291L206.761,142.291L206.761,142.291z M240.828,135.845
	c-0.662-0.625-1.31-1.26-2.588-1.896c-0.617,0-1.939-0.648-3.219-0.648c-1.926,0-3.205,0.648-3.853,1.285
	c-1.26,0.635-1.26,1.26-1.26,3.204c0,0,0,0.673,0,1.272c0.599,0.66,0.599,0.66,1.26,1.31c0.647,0,0.647,0,1.284,0.636
	c1.278,0,1.951,0.647,3.211,0.647c0.637,0,1.959,0.637,2.576,0.637c1.278,0.623,1.926,0.623,2.588,1.285
	c0.643,0.647,1.26,0.647,1.26,1.284c0.647,0.662,0.647,1.26,0.647,2.569c0,1.285,0,1.958-0.647,2.569
	c-0.617,0.648-0.617,1.285-1.26,1.92c-0.662,0.687-1.945,0.687-2.588,0.687c-0.617,0.611-1.939,0.611-3.219,0.611
	c-3.205,0-5.773-0.611-8.343-3.218l1.278-1.284c0,0,0.643,0.673,1.291,1.284c0.661,0,1.26,0,1.921,0.648
	c0.647,0,1.284,0.637,1.927,0.637c0.636,0,1.309,0,1.926,0c1.959,0,3.219,0,3.861-0.637c1.283-0.648,1.945-1.933,1.945-3.218
	c0-0.637-0.662-1.31-0.662-1.31c0-0.598-0.647-0.598-1.283-1.26c-0.643-0.637-1.26-0.637-1.902-0.637
	c-0.68-0.647-1.959-0.647-2.576-0.647c-1.309-0.662-1.951-0.662-3.235-1.285c-0.661,0-1.26-0.637-1.921-0.637
	c-0.648-0.647-1.291-1.283-1.291-1.933c0-0.66-0.661-1.26-0.661-1.933c0-1.285,0.661-1.944,0.661-2.569
	c0.643-1.271,1.291-1.271,1.952-1.92c0.599-0.648,1.26-1.31,1.907-1.31c1.279,0,1.915,0,3.205,0c1.279,0,2.602,0,3.861,0
	c1.283,0.661,1.945,1.31,2.588,1.958L240.828,135.845z M240.828,135.845L240.828,135.845L240.828,135.845z M267.791,151.284v1.933
	h-14.13V131.99h14.13v1.31h-12.19v8.354h10.283v1.26h-10.283v8.37H267.791z M267.791,151.284L267.791,151.284L267.791,151.284z
	 M290.29,153.217V135.22l-7.707,14.168h-1.279l-7.077-14.168v17.997h-2.55V131.99h2.55l7.739,14.13l8.324-14.13h1.958v21.227H290.29
	z M290.29,153.217L290.29,153.217L290.29,153.217z M321.818,131.99v21.227h-1.933v-10.303h-12.871v10.303H305.1V131.99h1.915v9.664
	h12.871v-9.664H321.818z M321.818,131.99L321.818,131.99L321.818,131.99z M335.307,153.217c-1.284,0-2.588-0.611-3.854-0.611
	c-1.291-0.687-2.582-1.321-3.243-2.606c-0.636-1.284-1.26-2.569-1.907-3.879c-0.655-1.26-0.655-2.544-0.655-3.829
	c0-1.284,0-2.569,0.655-3.829c0.647-1.31,1.271-2.617,1.907-3.877c1.285-0.637,1.952-1.285,3.243-1.934
	c1.266-0.661,2.569-0.661,3.854-0.661c1.921,0,3.211,0,4.471,0.661c0.637,0.648,1.945,1.297,2.589,2.568
	c1.284,0.625,1.926,1.933,2.568,3.242c0,1.26,0.655,2.545,0.655,3.829c0,1.933-0.655,3.231-0.655,3.829
	c-0.643,1.958-1.284,2.595-2.568,3.879c-0.644,1.285-1.952,1.92-3.193,2.606C338.518,153.217,336.566,153.217,335.307,153.217z
	 M335.307,153.217L335.307,153.217L335.307,153.217z M327.574,142.291c0,1.285,0,2.569,0.636,3.231
	c0.661,1.271,0.661,1.907,1.952,3.192c0.617,0.673,1.291,1.284,1.939,1.933c1.278,0.637,1.921,0.637,3.205,0.637
	c1.26,0,2.569,0,3.211-0.637c1.26-0.648,1.896-1.26,2.569-1.933c0.636-1.285,1.279-1.922,1.279-3.192
	c0.648-0.662,0.648-1.946,0.648-3.231c0-0.637,0-1.92-0.648-3.229c0-1.272-0.644-1.909-1.279-3.217
	c-0.673-0.625-1.31-1.26-2.569-1.896c-0.642,0-1.951-0.648-3.211-0.648c-1.284,0-1.927,0.648-3.205,0.648
	c-0.648,0.637-1.939,1.271-1.939,2.556c-1.291,0.648-1.291,1.958-1.952,2.558C327.574,140.371,327.574,141.654,327.574,142.291z
	 M327.574,142.291L327.574,142.291L327.574,142.291z M362.932,133.3h-7.078v19.917h-2.55V133.3h-7.072v-1.31h16.7V133.3z
	 M362.932,133.3L362.932,133.3L362.932,133.3z M372.553,153.217V131.99h7.739c1.285,0,3.206,0,3.854,0.661
	c1.277,0.648,2.537,1.297,3.235,1.934c1.26,1.26,1.915,1.919,1.915,3.877c0.636,1.26,0.636,2.545,0.636,3.829
	c0,1.933,0,3.231-0.636,4.502c-0.655,1.285-1.292,2.595-1.915,3.206c-0.698,1.285-1.958,1.92-3.235,2.606
	c-1.292,0-2.569,0.611-3.854,0.611H372.553z M372.553,153.217L372.553,153.217L372.553,153.217z M388.005,142.291
	c0-1.284,0-2.569-0.623-3.229c0-1.272-0.698-2.558-1.31-3.217c-0.648-0.625-1.926-1.26-2.574-1.896c-1.28,0-1.921-0.648-3.206-0.648
	h-5.139v17.984h5.139c1.285,0,1.926,0,3.206-0.637c1.29-0.648,1.926-1.26,2.574-1.933c0.611-1.285,1.31-1.922,1.31-2.595
	C388.005,144.86,388.005,143.576,388.005,142.291z M388.005,142.291L388.005,142.291L388.005,142.291z M402.137,153.217
	c-1.279,0-2.583-0.611-3.86-0.611c-1.285-0.687-1.927-1.321-3.206-2.606c-0.623-1.284-1.29-2.569-1.908-3.879
	c0-1.26-0.659-2.544-0.659-3.829c0-1.284,0.659-2.569,1.277-3.829c0-1.31,0.667-2.617,1.927-3.877
	c0.643-0.637,1.933-1.285,2.569-1.934c1.277-0.661,2.581-0.661,4.502-0.661c1.285,0,2.563,0,3.854,0.661
	c1.31,0.648,1.926,1.297,3.21,2.568c0.655,0.625,1.304,1.933,1.946,3.242c0,1.26,0.648,2.545,0.648,3.829
	c0,1.933-0.648,3.231-0.648,3.829c-0.643,1.958-1.291,2.595-2.569,3.879c-0.661,1.285-1.926,1.92-2.587,2.606
	C405.341,153.217,404.063,153.217,402.137,153.217z M402.137,153.217L402.137,153.217L402.137,153.217z M394.447,142.291
	c0,1.285,0.623,2.569,0.623,3.231c0.637,1.271,1.279,1.907,1.921,3.192c0.648,0.673,1.285,1.284,2.563,1.933
	c0.681,0.637,1.939,0.637,2.583,0.637c1.309,0,2.567,0,3.204-0.637c1.292-0.648,1.953-1.26,2.602-1.933
	c0.616-1.285,1.277-1.922,1.9-3.192c0-0.662,0.655-1.946,0.655-3.231c0-0.637-0.655-1.92-0.655-3.229
	c-0.623-1.272-1.284-1.909-1.9-3.217c-0.648-0.625-1.31-1.26-2.602-1.896c-0.637,0-1.896-0.648-3.204-0.648
	c-0.644,0-1.902,0.648-2.583,0.648c-1.277,0.637-1.914,1.271-2.563,2.556c-0.642,0.648-1.284,1.958-1.921,2.558
	C395.07,140.371,394.447,141.654,394.447,142.291z M394.447,142.291L394.447,142.291L394.447,142.291z M431.063,149.999
	c-1.927,1.92-3.848,3.218-6.422,3.218c-1.273,0-2.569-0.611-3.861-0.611c-1.277-0.687-2.569-1.958-3.204-2.606
	c-0.661-1.284-1.277-2.569-1.952-3.879c-0.617-1.26-0.617-2.544-0.617-3.829c0-1.284,0-2.569,0.617-3.829
	c0.675-1.31,1.291-2.617,1.952-3.877c0.635-0.637,1.927-1.285,3.204-1.934c1.292-0.661,2.588-0.661,3.861-0.661
	c0.642,0,1.926,0,2.574,0c0.644,0,1.921,0.661,2.544,1.31c0.687,0,1.304,0.648,1.304,0.648c0.643,1.271,1.284,1.271,1.284,2.556
	l-1.284,0.648c-0.617-1.308-1.927-1.933-2.563-2.567c-1.285-0.637-2.582-1.285-3.859-1.285c-1.273,0-2.569,0.648-3.218,0.648
	c-1.278,0.637-1.921,1.271-2.569,2.556c-0.644,0.648-1.278,1.285-1.278,2.558c-0.661,1.31-0.661,2.593-0.661,3.229
	c0,1.285,0,2.569,0.661,3.231c0,1.271,0.635,1.907,1.278,3.192c1.291,0.673,1.926,1.284,2.569,1.933
	c1.271,0.637,2.55,0.637,3.218,0.637c1.277,0,2.574,0,3.859-0.637c0.636-0.648,1.945-1.933,2.563-2.569v-3.854h-4.496v-1.31h6.431
	v10.303h-1.935V149.999z"/>
</svg>
